<?xml version="1.0" standalone="no"?>
<svg xmlns:xlink="http://www.w3.org/1999/xlink" id="wave" style="transform:rotate(0deg); transition: 0.3s" viewBox="0 0 1440 130" version="1.1" xmlns="http://www.w3.org/2000/svg"><defs><linearGradient id="sw-gradient-0" x1="0" x2="0" y1="1" y2="0"><stop stop-color="rgba(40, 44, 52, 1)" offset="0%"/><stop stop-color="rgba(130, 120, 220, 1)" offset="100%"/></linearGradient></defs><path style="transform:translate(0, 0px); opacity:1" fill="url(#sw-gradient-0)" d="M0,39L60,36.8C120,35,240,30,360,32.5C480,35,600,43,720,56.3C840,69,960,87,1080,84.5C1200,82,1320,61,1440,52C1560,43,1680,48,1800,43.3C1920,39,2040,26,2160,21.7C2280,17,2400,22,2520,19.5C2640,17,2760,9,2880,15.2C3000,22,3120,43,3240,58.5C3360,74,3480,82,3600,88.8C3720,95,3840,100,3960,88.8C4080,78,4200,52,4320,47.7C4440,43,4560,61,4680,71.5C4800,82,4920,87,5040,80.2C5160,74,5280,56,5400,47.7C5520,39,5640,39,5760,41.2C5880,43,6000,48,6120,49.8C6240,52,6360,52,6480,54.2C6600,56,6720,61,6840,71.5C6960,82,7080,100,7200,106.2C7320,113,7440,108,7560,104C7680,100,7800,95,7920,97.5C8040,100,8160,108,8280,106.2C8400,104,8520,91,8580,84.5L8640,78L8640,130L8580,130C8520,130,8400,130,8280,130C8160,130,8040,130,7920,130C7800,130,7680,130,7560,130C7440,130,7320,130,7200,130C7080,130,6960,130,6840,130C6720,130,6600,130,6480,130C6360,130,6240,130,6120,130C6000,130,5880,130,5760,130C5640,130,5520,130,5400,130C5280,130,5160,130,5040,130C4920,130,4800,130,4680,130C4560,130,4440,130,4320,130C4200,130,4080,130,3960,130C3840,130,3720,130,3600,130C3480,130,3360,130,3240,130C3120,130,3000,130,2880,130C2760,130,2640,130,2520,130C2400,130,2280,130,2160,130C2040,130,1920,130,1800,130C1680,130,1560,130,1440,130C1320,130,1200,130,1080,130C960,130,840,130,720,130C600,130,480,130,360,130C240,130,120,130,60,130L0,130Z"/></svg>